<svg aria-hidden="true" style="position: absolute; width: 0; height: 0; overflow: hidden;" version="1.1" xmlns="http://www.w3.org/2000/svg" xmlns:xlink="http://www.w3.org/1999/xlink">
<defs>
<symbol id="icon-instagram" viewBox="0 0 32 32">
<path d="M24.583 27.916h-17.165c-0.884 0-1.732-0.351-2.357-0.976s-0.976-1.473-0.976-2.357v-17.165c0-0.884 0.351-1.732 0.976-2.357s1.473-0.976 2.357-0.976h17.165c0.884 0 1.732 0.351 2.357 0.976s0.976 1.473 0.976 2.357v17.165c0 0.884-0.351 1.732-0.976 2.357s-1.473 0.976-2.357 0.976zM7.417 5.417c-0.53 0-1.039 0.211-1.414 0.586s-0.586 0.884-0.586 1.414v17.165c0 0.53 0.211 1.039 0.586 1.414s0.884 0.586 1.414 0.586h17.165c0.53 0 1.039-0.211 1.414-0.586s0.586-0.884 0.586-1.414v-17.165c0-0.53-0.211-1.039-0.586-1.414s-0.884-0.586-1.414-0.586h-17.165z"></path>
<path d="M16 22.125c-1.212-0.001-2.396-0.362-3.402-1.036s-1.791-1.631-2.254-2.751c-0.463-1.12-0.583-2.351-0.346-3.54s0.821-2.279 1.679-3.135c0.857-0.856 1.949-1.439 3.137-1.675s2.42-0.114 3.539 0.35c1.119 0.464 2.075 1.25 2.748 2.257s1.032 2.192 1.031 3.404c-0.002 1.625-0.649 3.183-1.799 4.332s-2.709 1.794-4.334 1.794zM16 11.2c-0.947 0.001-1.873 0.283-2.661 0.811s-1.401 1.276-1.763 2.152c-0.362 0.876-0.456 1.839-0.271 2.768s0.642 1.783 1.312 2.453c0.67 0.67 1.523 1.126 2.453 1.311s1.892 0.091 2.768-0.271 1.624-0.975 2.151-1.763c0.527-0.787 0.809-1.713 0.811-2.66 0-1.273-0.506-2.494-1.406-3.394s-2.121-1.406-3.394-1.406z"></path>
<path d="M22.933 10.54c0.792 0 1.433-0.642 1.433-1.433s-0.642-1.433-1.433-1.433c-0.792 0-1.433 0.642-1.433 1.433s0.642 1.433 1.433 1.433z"></path>
</symbol>
<symbol id="icon-facebook" viewBox="0 0 32 32">
<path stroke-linejoin="round" stroke-linecap="round" stroke-miterlimit="4" d="M28 10.667v10.667c0 1.768-0.702 3.464-1.953 4.714s-2.946 1.953-4.714 1.953h-10.667c-1.768 0-3.464-0.702-4.714-1.953s-1.953-2.946-1.953-4.714v-10.667c0-1.768 0.702-3.464 1.953-4.714s2.946-1.953 4.714-1.953h10.667c1.768 0 3.464 0.702 4.714 1.953s1.953 2.946 1.953 4.714z"></path>
<path stroke-linejoin="round" stroke-linecap="round" stroke-miterlimit="4" d="M14.667 28v-12c0-2.917 0.667-5.333 5.333-5.333M12 17.333h8"></path>
</symbol>
<symbol id="icon-marker" viewBox="0 0 32 32">
<path d="M16 0l16 16-16 16-16-16 16-16z"></path>
</symbol>
<symbol id="icon-location" viewBox="0 0 32 32">
<path d="M16 16c0.733 0 1.361-0.261 1.884-0.784s0.784-1.15 0.783-1.883c0-0.733-0.261-1.361-0.784-1.884s-1.15-0.784-1.883-0.783c-0.733 0-1.361 0.261-1.884 0.784s-0.784 1.15-0.783 1.883c0 0.733 0.261 1.361 0.784 1.884s1.15 0.784 1.883 0.783zM16 25.8c2.711-2.489 4.722-4.75 6.033-6.784s1.967-3.839 1.967-5.416c0-2.422-0.772-4.405-2.317-5.949s-3.439-2.316-5.683-2.317c-2.244 0-4.139 0.772-5.684 2.317s-2.317 3.528-2.316 5.949c0 1.578 0.656 3.384 1.967 5.417s3.322 4.295 6.033 6.783zM16 29.333c-3.578-3.044-6.25-5.872-8.016-8.483s-2.65-5.027-2.651-7.251c0-3.333 1.072-5.989 3.217-7.967s4.628-2.967 7.449-2.967c2.822 0 5.306 0.989 7.451 2.967s3.217 4.633 3.216 7.967c0 2.222-0.884 4.639-2.651 7.251s-4.439 5.439-8.016 8.483z"></path>
</symbol>
<symbol id="icon-telephone" viewBox="0 0 32 32">
<path d="M19.84 16h2.56c0-1.697-0.674-3.325-1.875-4.525s-2.828-1.875-4.525-1.875v2.56c1.018 0 1.995 0.405 2.715 1.125s1.125 1.697 1.125 2.715zM24.96 16h2.56c0-6.4-5.158-11.52-11.52-11.52v2.56c4.941 0 8.96 4.006 8.96 8.96zM26.24 20.48c-1.6 0-3.136-0.256-4.57-0.73-0.448-0.141-0.947-0.038-1.306 0.32l-2.816 2.816c-3.631-1.852-6.583-4.804-8.435-8.435l2.816-2.816c0.358-0.358 0.461-0.858 0.32-1.306-0.486-1.474-0.732-3.017-0.73-4.57 0-0.339-0.135-0.665-0.375-0.905s-0.566-0.375-0.905-0.375h-4.48c-0.339 0-0.665 0.135-0.905 0.375s-0.375 0.566-0.375 0.905c0 5.771 2.293 11.306 6.373 15.387s9.616 6.373 15.387 6.373c0.339 0 0.665-0.135 0.905-0.375s0.375-0.566 0.375-0.905v-4.48c0-0.339-0.135-0.665-0.375-0.905s-0.566-0.375-0.905-0.375z"></path>
</symbol>
<symbol id="icon-arrow" viewBox="0 0 32 32">
<path stroke-linejoin="miter" stroke-linecap="butt" stroke-miterlimit="4" stroke-width="3.2" d="M4.8 2.4l20.8 13.6-20.8 13.6"></path>
</symbol>
<symbol id="icon-youtube" viewBox="0 0 32 32">
<path d="M19.723 14.367l-4.891-2.816c-0.287-0.165-0.613-0.252-0.944-0.252s-0.657 0.088-0.944 0.253-0.525 0.404-0.691 0.691c-0.166 0.287-0.253 0.612-0.253 0.944v5.629c-0.004 0.675 0.356 1.299 0.941 1.632 0.287 0.168 0.613 0.256 0.946 0.257s0.659-0.087 0.946-0.254l4.889-2.816c0.287-0.165 0.526-0.403 0.692-0.69s0.253-0.612 0.253-0.944c0-0.331-0.087-0.657-0.253-0.944s-0.404-0.525-0.692-0.69v-0.001zM19.056 16.476l-4.888 2.817c-0.085 0.050-0.181 0.076-0.279 0.076s-0.195-0.026-0.279-0.076c-0.085-0.048-0.155-0.118-0.204-0.202s-0.074-0.18-0.072-0.278v-5.627c-0.001-0.097 0.024-0.193 0.073-0.277s0.119-0.154 0.203-0.202c0.084-0.051 0.18-0.078 0.279-0.078s0.195 0.027 0.279 0.078l4.889 2.817c0.084 0.048 0.154 0.117 0.203 0.2s0.075 0.179 0.075 0.276c0 0.097-0.026 0.192-0.075 0.276s-0.119 0.151-0.203 0.199zM25.333 5.333h-18.667c-1.061 0.001-2.077 0.423-2.827 1.173s-1.172 1.767-1.173 2.827v13.333c0.001 1.061 0.423 2.077 1.173 2.827s1.767 1.172 2.827 1.173h18.667c1.061-0.001 2.077-0.423 2.827-1.173s1.172-1.767 1.173-2.827v-13.333c-0.001-1.060-0.423-2.077-1.173-2.827s-1.767-1.172-2.827-1.173zM28 22.667c-0.001 0.707-0.282 1.385-0.782 1.884s-1.178 0.781-1.884 0.782h-18.667c-0.707-0.001-1.385-0.282-1.884-0.782s-0.781-1.178-0.782-1.884v-13.333c0.001-0.707 0.282-1.385 0.782-1.884s1.178-0.781 1.884-0.782h18.667c0.707 0.001 1.385 0.282 1.884 0.782s0.781 1.178 0.782 1.884v13.333z"></path>
</symbol>
<symbol id="icon-menu" viewBox="0 0 32 32">
<path stroke-linejoin="round" stroke-linecap="round" stroke-miterlimit="4" stroke-width="1.3333" d="M4 8.001h24M4 16.001h24M4 24.001h24"></path>
</symbol>
<symbol id="icon-close" viewBox="0 0 32 32">
<path d="M23.733 10.304l-1.504-1.504-5.963 5.963-5.963-5.963-1.504 1.504 5.963 5.963-5.963 5.963 1.504 1.504 5.963-5.963 5.963 5.963 1.504-1.504-5.963-5.963 5.963-5.963z"></path>
</symbol>
</defs>
</svg>
